<?xml version="1.0" standalone="no"?>
<!DOCTYPE svg PUBLIC "-//W3C//DTD SVG 20010904//EN"
 "http://www.w3.org/TR/2001/REC-SVG-20010904/DTD/svg10.dtd">
<svg version="1.0" xmlns="http://www.w3.org/2000/svg"
 width="500.000000pt" height="500.000000pt" viewBox="0 0 500.000000 500.000000"
 preserveAspectRatio="xMidYMid meet">
<metadata>
Created by potrace 1.11, written by Peter Selinger 2001-2013
</metadata>
<g transform="translate(0.000000,500.000000) scale(0.100000,-0.100000)"
fill="#000000" stroke="none">
<path d="M1535 4742 c-127 -14 -279 -71 -309 -117 -12 -18 -13 -24 -4 -23 7 2
12 -3 10 -11 -3 -12 0 -12 12 -2 11 9 16 9 22 0 5 -8 3 -9 -6 -4 -8 5 -11 4
-7 -2 6 -10 64 -9 74 1 3 3 12 -2 20 -12 9 -10 11 -11 7 -2 -7 13 -6 13 12 0
30 -22 134 -132 134 -141 0 -4 6 -14 13 -21 20 -22 52 -70 78 -118 13 -25 26
-47 29 -50 3 -3 14 -23 25 -45 11 -22 24 -43 30 -47 7 -5 7 -8 0 -8 -7 0 -7
-3 0 -8 9 -6 69 -91 100 -141 6 -9 15 -19 20 -23 6 -4 6 -8 2 -8 -4 0 5 -11
20 -24 21 -19 25 -26 13 -29 -8 -3 -42 -13 -75 -23 -56 -16 -126 -53 -150 -78
-38 -40 -42 -60 -41 -196 1 -124 3 -138 24 -167 l23 -33 -20 -29 c-20 -27
-110 -91 -129 -91 -15 0 -63 -60 -87 -108 -48 -99 -48 -76 -48 -1401 0 -1107
2 -1250 16 -1276 17 -33 56 -72 99 -98 27 -17 131 -59 155 -63 6 -1 27 -7 45
-13 18 -6 44 -12 58 -15 14 -2 45 -9 70 -15 25 -5 56 -12 70 -15 22 -4 89 -19
145 -33 56 -13 107 -15 435 -16 311 -2 408 1 535 18 17 2 50 6 75 9 43 5 123
19 184 31 276 56 433 133 463 230 10 34 10 2481 0 2530 -4 17 -9 40 -11 52
-17 82 -77 163 -148 199 -83 42 -140 113 -128 159 2 6 4 70 5 143 2 145 -5
169 -53 209 -36 31 -104 61 -177 79 -154 39 -146 36 -132 52 10 13 9 14 -10 3
-13 -6 -23 -9 -23 -6 0 3 16 13 35 21 19 8 35 21 35 30 0 9 5 12 13 8 8 -5 7
-2 -2 9 -12 15 -12 17 1 12 10 -4 21 4 32 22 l17 28 -20 -24 c-12 -13 -21 -19
-21 -15 1 15 26 44 39 44 11 0 15 13 11 39 -1 9 4 12 16 7 15 -6 15 -4 3 11
-12 15 -12 16 3 10 14 -5 16 -2 8 17 -9 25 3 46 27 46 10 0 11 5 4 19 -8 15
-7 20 7 23 10 3 18 16 20 32 3 37 21 68 34 60 7 -5 9 0 6 14 -4 12 -1 25 4 29
7 4 8 1 3 -7 -6 -9 -4 -11 4 -6 7 5 10 15 7 23 -3 8 -2 12 3 9 5 -3 14 1 21 9
7 8 16 12 21 9 5 -3 5 6 -1 20 -8 22 -7 24 11 21 15 -3 19 0 15 10 -5 15 4 19
39 15 16 -2 17 0 6 14 -12 14 -11 16 4 10 16 -6 16 -5 2 23 -11 20 -28 33 -54
40 -37 11 -123 28 -133 26 -3 0 -25 -3 -50 -7 -173 -22 -310 -93 -445 -231
-44 -45 -84 -89 -90 -97 -16 -23 -38 -61 -57 -100 -27 -55 -36 -56 -46 -5 -1
4 -11 16 -22 27 -11 11 -20 27 -20 35 0 8 -4 15 -8 15 -4 0 -15 12 -24 28 -39
64 -167 194 -253 257 -22 17 -42 32 -45 35 -24 24 -214 115 -290 139 -111 35
-247 52 -335 43z m1780 -313 c-4 -5 -12 -9 -18 -8 -9 0 -8 2 1 6 6 2 9 10 6
15 -4 7 -2 8 5 4 6 -4 9 -12 6 -17z m-260 -439 c-3 -5 -12 -10 -18 -10 -7 0
-6 4 3 10 19 12 23 12 15 0z m-5 -155 c14 -3 39 -8 55 -12 17 -4 33 -6 38 -5
4 1 7 -2 7 -7 0 -5 12 -12 28 -16 50 -12 112 -54 112 -77 0 -44 -62 -73 -218
-103 -13 -2 -32 -7 -42 -10 -10 -3 -35 -8 -56 -10 -22 -3 -50 -7 -64 -10 -31
-5 -105 -13 -185 -19 l-60 -5 -31 49 c-17 26 -25 46 -18 43 9 -3 12 3 8 22 -3
20 -1 25 8 19 10 -6 9 -3 -1 9 -9 11 -10 17 -2 17 6 0 11 5 11 11 0 5 -5 7
-12 3 -7 -5 -8 -3 -3 5 4 7 15 11 25 8 9 -2 22 4 29 14 6 11 16 19 22 19 6 0
3 -7 -5 -16 -23 -23 -19 -27 8 -8 14 8 27 15 30 15 22 -3 36 1 36 10 0 5 -5 7
-12 3 -7 -4 -8 -3 -4 5 6 9 11 9 22 0 11 -9 14 -8 15 7 0 11 3 14 5 7 7 -15
34 -5 34 12 0 8 4 17 10 20 5 3 7 0 4 -8 -3 -8 1 -14 10 -14 8 0 12 5 9 10 -4
6 1 8 11 4 9 -4 15 -3 11 2 -3 5 1 12 7 15 13 6 111 0 158 -9z m-1110 -15 c0
-5 7 -10 15 -10 8 0 15 -4 15 -9 0 -5 9 -13 20 -16 11 -3 20 -14 20 -23 0 -15
2 -15 10 -2 9 14 14 7 11 -13 -1 -5 3 -6 8 -3 12 8 42 -4 36 -14 -3 -4 2 -11
11 -14 10 -4 13 -2 9 7 -4 6 0 4 8 -6 11 -14 16 -15 20 -5 4 9 6 8 6 -4 1 -11
7 -15 24 -11 18 4 19 3 7 -6 -13 -10 -13 -11 0 -12 8 -1 25 -3 38 -4 13 -1 30
-11 38 -21 9 -11 12 -13 8 -5 -5 10 -1 11 17 6 13 -4 27 -13 31 -19 5 -7 8 -6
8 4 0 13 2 13 9 1 5 -8 18 -12 30 -8 12 3 24 0 28 -5 4 -7 1 -8 -8 -3 -8 5
-11 4 -6 0 10 -11 48 -14 41 -3 -3 4 0 8 5 8 6 0 11 -4 11 -10 0 -5 14 -7 30
-5 17 2 28 0 25 -6 -9 -13 9 -11 24 4 7 6 12 8 11 2 -5 -24 1 -27 15 -9 8 10
15 15 14 9 -3 -22 2 -27 15 -16 12 10 20 9 40 -4 44 -29 33 -40 -39 -36 -37 1
-42 1 -130 -2 -38 -1 -74 -1 -79 2 -4 2 -47 5 -95 7 -47 2 -99 5 -116 8 -86
12 -132 19 -150 22 -11 2 -33 7 -50 10 -52 9 -169 46 -206 64 -49 26 -65 46
-49 64 37 45 270 119 270 86z m1362 -285 c-13 -56 -62 -102 -118 -109 -16 -3
-51 -12 -79 -21 -27 -10 -70 -19 -95 -21 -25 -1 -58 -5 -75 -8 -16 -3 -61 -8
-100 -11 -38 -3 -78 -8 -87 -11 -16 -5 -43 27 -32 39 3 3 1 21 -4 41 -10 33
-9 36 11 37 12 1 47 3 77 5 30 1 55 3 55 4 0 1 14 3 30 5 31 4 76 11 135 21
59 9 193 46 235 65 46 21 58 12 47 -36z m-1579 31 c49 -22 102 -37 177 -52
190 -36 312 -47 565 -48 206 -1 198 2 207 -86 3 -24 0 -25 -56 -30 -101 -9
-377 -1 -501 15 -38 5 -128 18 -135 20 -9 2 -90 17 -97 17 -16 2 -141 46 -169
61 -40 20 -51 35 -57 74 -8 47 9 55 66 29z m1618 -237 c40 -50 76 -79 142
-113 25 -13 48 -36 60 -59 47 -91 47 -81 47 -1135 0 -666 -3 -991 -10 -987 -5
3 -10 13 -10 22 0 9 -3 13 -6 10 -4 -4 -15 3 -25 15 -11 11 -19 17 -19 13 0
-5 -7 0 -16 11 -8 10 -13 13 -9 7 4 -9 1 -11 -9 -7 -9 3 -16 12 -16 20 0 8 -6
11 -17 7 -12 -5 -14 -3 -8 7 6 10 3 12 -13 8 -12 -3 -20 -2 -19 2 1 4 -2 8 -7
8 -5 0 -13 6 -17 14 -7 11 -9 10 -9 -1 0 -11 -4 -10 -13 4 -11 14 -16 15 -22
5 -7 -11 -10 -9 -15 6 -5 12 -1 24 9 32 9 8 10 11 4 7 -8 -4 -13 0 -13 10 0
10 5 13 12 9 7 -5 8 -3 3 7 -9 13 -14 34 -17 72 -1 9 -6 17 -10 17 -4 0 -8 9
-8 20 0 11 -6 23 -14 26 -8 3 -13 14 -11 25 2 11 -2 19 -10 19 -8 0 -11 7 -8
20 3 11 0 20 -6 20 -6 0 -11 9 -11 20 0 11 -6 20 -12 20 -9 0 -8 4 2 10 13 8
13 10 -2 10 -9 0 -21 6 -25 14 -12 19 -52 38 -65 30 -7 -4 -8 -3 -4 4 7 12 -1
15 -36 15 -10 0 -18 3 -18 6 0 4 -12 8 -27 9 -15 1 -30 8 -35 15 -5 7 -8 8 -8
1 0 -12 -41 -11 -59 1 -6 3 -11 2 -11 -3 0 -5 -22 -8 -50 -7 -31 1 -50 -2 -50
-9 0 -6 -4 -5 -9 3 -6 9 -11 10 -15 2 -4 -6 -12 -11 -17 -11 -6 0 -7 5 -3 11
4 7 -3 6 -17 -2 -13 -7 -35 -14 -49 -15 -14 -2 -36 -6 -50 -9 -16 -4 -20 -3
-12 3 11 7 10 10 -3 16 -9 3 -13 10 -10 16 3 5 1 10 -4 10 -6 0 -20 8 -31 18
-11 9 -23 15 -27 14 -3 -2 -9 2 -14 9 -7 12 -27 18 -74 21 -11 1 -23 6 -26 11
-4 5 -16 4 -30 -3 -15 -9 -24 -9 -27 -2 -1 5 -11 8 -22 5 -17 -4 -18 0 -14 49
9 105 9 223 0 236 -5 7 -5 12 0 12 5 0 9 26 10 58 1 78 11 189 19 201 3 6 8
32 10 58 2 27 4 49 5 51 2 1 3 5 4 10 1 4 7 17 14 30 7 12 9 22 5 22 -4 0 -2
5 5 12 7 7 12 18 12 26 0 14 20 65 46 115 8 16 14 35 14 44 0 8 11 29 25 45
14 16 23 34 19 39 -3 5 0 9 5 9 6 0 11 5 11 11 0 12 11 37 66 154 15 33 29 68
30 78 1 9 3 19 4 22 1 3 4 10 5 15 1 6 3 11 5 13 10 12 26 140 25 196 -1 40 2
51 14 52 206 15 482 72 525 110 16 14 29 5 67 -42z m-1599 16 c59 -20 202 -52
267 -60 30 -4 63 -9 75 -11 62 -12 194 -18 389 -19 l218 0 -4 -90 c-3 -49 -8
-99 -12 -110 -4 -11 -9 -27 -12 -35 -4 -8 -8 -26 -10 -40 -2 -14 -14 -47 -27
-75 -86 -183 -106 -224 -115 -230 -6 -3 -11 -15 -11 -25 0 -10 -6 -31 -14 -47
-21 -40 -49 -106 -53 -120 -6 -27 -10 -39 -22 -68 -12 -28 -21 -76 -24 -135
-1 -14 -5 -27 -9 -30 -4 -3 -9 -30 -11 -60 -3 -30 -7 -64 -10 -75 -2 -11 0
-26 6 -32 5 -7 6 -13 1 -13 -11 0 -11 -201 -1 -217 4 -7 4 -14 -1 -17 -5 -3
-10 -31 -11 -62 -3 -69 -16 -91 -53 -88 -16 2 -28 -2 -28 -7 0 -6 -4 -8 -9 -4
-5 3 -12 1 -16 -5 -4 -6 -11 -8 -16 -5 -5 4 -12 -1 -15 -9 -3 -9 -10 -13 -15
-10 -5 3 -9 0 -9 -5 0 -6 -6 -11 -14 -11 -8 0 -18 -9 -21 -20 -3 -11 -13 -20
-21 -20 -8 0 -14 -4 -14 -8 0 -4 -16 -14 -35 -21 -19 -7 -33 -17 -29 -22 3 -5
2 -9 -3 -8 -25 4 -45 -2 -40 -14 3 -8 -1 -14 -9 -14 -7 0 -11 4 -8 9 3 4 0 8
-5 8 -6 0 -11 -4 -11 -10 0 -5 -5 -10 -11 -10 -7 0 -18 -8 -25 -18 -11 -14
-13 -14 -14 -2 0 9 -3 11 -8 5 -10 -14 -52 -36 -60 -32 -4 2 -15 -4 -24 -15
-10 -10 -15 -18 -12 -18 4 0 -7 -14 -24 -30 -18 -17 -28 -30 -24 -30 4 0 -1
-5 -11 -11 -9 -6 -15 -14 -12 -19 3 -4 -2 -11 -11 -14 -14 -5 -14 -9 -3 -23 8
-10 9 -14 2 -10 -6 4 -14 3 -18 -3 -3 -6 1 -13 10 -17 15 -5 16 -7 2 -15 -9
-5 -14 -15 -11 -23 5 -11 -4 -13 -40 -12 -25 1 -46 -2 -46 -6 0 -5 -4 -6 -9
-3 -12 8 -42 -4 -36 -13 2 -4 -9 -7 -25 -6 -16 1 -27 -2 -25 -5 7 -11 -20 -31
-30 -22 -5 4 -5 1 -1 -6 4 -7 1 -15 -8 -18 -9 -3 -13 -10 -10 -15 3 -5 2 -9
-3 -8 -22 4 -31 -3 -37 -26 -4 -14 -11 -25 -16 -25 -5 0 -7 -8 -4 -17 5 -14 4
-15 -4 -4 -8 12 -10 1988 -1 2028 1 7 14 36 28 65 20 40 38 60 75 83 27 17 74
55 105 86 31 31 57 57 58 58 1 0 22 -6 45 -14z m-287 -2756 c4 -5 18 -15 33
-20 19 -7 22 -13 14 -21 -8 -8 -7 -15 6 -25 11 -9 12 -12 2 -7 -8 4 -4 -5 9
-19 28 -31 26 -33 -16 -12 -47 23 -83 64 -81 91 2 25 22 32 33 13z"/>
<path d="M2430 3600 c0 -5 5 -10 11 -10 5 0 7 5 4 10 -3 6 -8 10 -11 10 -2 0
-4 -4 -4 -10z"/>
</g>
</svg>